Patient4_TMGait_0pt7_01_right_46_EMG.mot
version=1
nRows=16
nColumns=33
inDegrees=no
endheader
time	1LAddLong	2LGlutMax	3LGlutMed	4LIliopsoas	5LSemiMemb	6LBicFemLong	7LRecFem	8LVastMed	9LVastLat	10LGasMed	11LTibAnt	12lTibPost	13LPeroneusLong	14LSol	15LExtDigLong	16LFlexDigLong	17RAddLong	18RGlutMax	19RGlutMed	20RIliopsoas	21RSemiMemb	22RBicFemLong	23RRecFem	24RVastMed	25RVastLat	26RGasMed	27RTibAnt	28RTibPost	29RPeroneusLong	30RSol	31RExtDigLong	32RFlexDigLong
53.61	0.024567	0.15366	0.11124	0.010986	-0.055237	0.30014	0.039368	-0.019836	0.22095	-0.1236	0.061035	0.008545	0.037384	-0.053558	-0.037537	0.074005	0.013885	-0.12802	0.49011	-0.021057	0.097198	-0.10437	-0.006409	-0.052795	0.090332	-0.005493	-0.16785	-0.007324	0.012054	0.25192	-0.00885	-0.014038
53.611	0.030518	0.22903	0.094757	0.011292	0.11704	0.28336	0.060577	-0.027618	0.25406	-0.052643	0.023193	0.010529	0.018921	-0.10803	-0.031891	0.037384	0.036926	-0.15549	-0.14725	0.16632	0.074463	-0.13046	-0.048828	-0.019073	0.10315	-0.010986	-0.077209	-0.002899	-0.16724	0.17349	-0.003052	-0.009766
53.612	0.01297	0.26489	0.064087	-0.007935	0.11887	0.34759	0.021057	0.003815	0.22217	-0.006409	-0.024872	0.009003	0.026245	-0.20187	-0.0177	-0.003052	0.045166	-0.23727	0.003815	0.10696	0.035248	-0.1622	-0.054626	-0.046082	0.089874	-0.00824	0.004425	-0.003967	-0.24002	0.11917	-0.005035	-0.004883
53.613	-0.041809	0.34103	-0.016022	-0.010223	0.052032	0.3865	-0.005341	0.037537	0.11597	0.034332	-0.032806	0.003967	0.028534	-0.18234	-0.014801	-0.025482	0.017548	-0.17166	0.10452	0.083466	0.009003	-0.19898	-0.058136	-0.063934	0.099487	-0.003204	0.012512	-0.00351	0.27802	0.10834	-0.007629	-0.002594
53.614	-0.072937	0.37994	-0.055847	-0.003967	-0.028992	0.25101	0.006561	0.019379	0.12253	0.080872	-0.024109	-0.00061	0.048218	-0.082245	-0.041504	-0.037079	0.00473	-0.070038	0.055847	0.12161	-0.00885	-0.22293	-0.059052	-0.064392	0.086365	-0.001221	0.028992	-0.00351	0.15015	0.097198	-0.000153	-0.001526
53.615	-0.067291	0.37033	-0.1091	0.012512	-0.098114	0.1593	-0.086975	0.030212	0.17944	0.080109	0.021515	0.007019	0.040894	-0.081482	-0.00412	-0.023651	0.007019	-0.075226	-0.015869	0.097198	-0.013123	-0.21194	-0.036621	-0.12451	0.090179	-0.003204	0.035706	-0.003967	-0.024261	0.072479	-0.002441	-0.011597
53.616	-0.055847	0.31235	0.011139	0.004578	-0.23514	0.12528	-0.19638	0.023346	0.077209	0.050507	-0.010834	0	0.02655	-0.057831	0.088806	-0.02182	-0.035858	-0.1004	0.02182	0.12665	0.0354	-0.14236	-0.039978	-0.059814	0.090027	-0.005951	0.064545	-0.001373	-0.066071	0.077057	-0.002136	-0.011902
53.617	-0.0177	0.26474	0.18204	-0.000458	-0.13351	-0.45975	-0.25787	0.015717	-0.008545	-0.040894	-0.017395	-0.003204	0.032349	-0.024719	0.049896	-0.028381	-0.049744	-0.11414	0.088348	0.10071	0.064392	-0.042725	-0.028229	-0.094147	0.090942	-0.007324	0.071106	-0.001678	-0.10178	0.016632	-0.007019	-0.018311
53.618	0.024261	0.15945	0.20538	-0.008087	0.11292	-1.0028	-0.19089	-0.015564	-0.014038	-0.080872	0.009155	0.001373	0.009155	-0.001678	-0.03067	-0.025177	-0.087738	-0.103	0.21805	-0.013275	0.061798	-0.048676	-0.050964	-0.11932	0.10269	0	0.012054	-0.002136	0.001678	-0.057526	-0.001678	-0.012207
53.619	0.041504	0.14938	0.14374	0.005798	0.23102	-0.82611	-0.15137	-0.030518	-0.086212	-0.054169	0.059967	-0.002899	-0.028687	0.0177	0.077362	-0.008698	-0.065002	-0.060425	0.28046	-0.057068	0.049591	-0.071564	-0.036774	-0.095062	0.10635	-0.005798	0.030518	-0.011902	-0.017853	0.03891	-0.000763	-0.013123
53.62	0.057068	0.19943	0.098724	0.006409	0.25482	-0.54214	-0.17624	-0.031891	-0.12146	-0.07309	0.067902	0.000763	0.055542	0.086975	0.098572	-0.00351	-0.032654	-0.061035	0.25803	-0.037231	0.027618	-0.078735	-0.055847	-0.13138	0.094147	0.00061	0.043182	-0.001678	0.067291	0.097961	-0.001373	-0.020905
53.621	0.031891	0.24292	0.10284	0.016327	0.1973	-0.20432	-0.23941	-0.020447	-0.02121	-0.050049	-0.014954	0.00412	0.091095	0.1416	0.58334	0.005798	0.049744	-0.019989	0.21225	0.029602	0.013275	-0.11566	-0.059357	-0.10941	0.0914	-0.002899	0.027771	-0.001678	0.18799	0.18539	-0.006409	-0.028534
53.622	0.009003	0.15732	0.048523	-0.006714	0.15656	-0.056	-0.2034	-0.012054	0.056915	-0.02121	-0.25146	-0.006104	0.050812	0.12634	0.8844	-0.011902	0.071411	0.006714	0.070343	0.009155	0.02182	-0.10407	-0.074158	-0.046692	0.097046	-0.007935	0.053711	-0.002594	0.15442	0.24155	-0.004272	-0.023804
53.623	-0.014038	0.042877	-0.09964	-0.007324	0.10773	0.018616	-0.096283	-0.022278	0.078583	-0.007782	-0.15762	-0.009613	-0.025787	0.1178	0.1918	0.006714	0.12558	-0.050201	0.042877	-0.054932	0.036926	-0.15732	-0.068512	-0.023041	0.090485	-0.013733	0.075531	-0.001831	0.086365	0.21759	-0.006409	-0.015259
53.624	-0.016327	0.001831	-0.20935	0.010834	0.066986	-0.112	-0.025787	-0.008087	0.046387	-0.046997	0.033875	-0.000305	-0.036621	0.15564	-0.63705	0.006866	0.1561	-0.036316	0.047607	-0.089417	0.12054	-0.16235	-0.084076	0.024567	0.088959	-0.012207	0.073395	0.00473	0.10681	0.19852	-0.003357	-0.011749
53.625	-0.011292	-0.07309	-0.2832	-0.011749	0.006866	-0.2803	-0.057526	-0.014954	-0.030975	-0.064087	0.15839	-0.005493	0.07782	0.16846	-0.53406	0.005341	0.17349	-0.025482	0.071564	-0.10284	0.12726	-0.11871	-0.095215	0.059967	0.086517	-0.012512	0.053406	-0.000763	0.047607	0.16846	-0.003815	-0.013275
